<svg width="50" height="50" viewBox="0 0 50 50" fill="none" xmlns="http://www.w3.org/2000/svg">
<g opacity="0.9" clip-path="url(#clip0_169_178)">
<path d="M24.9833 4.09583C24.0792 4.09583 23.1708 4.27499 22.3167 4.63124L3.70625 12.3271C2.65833 12.7604 2.68542 14.2187 3.73125 14.6521L22.4437 22.0646C24.0833 22.7283 25.9167 22.7283 27.5562 22.0646L46.2687 14.6521C47.3167 14.2437 47.3167 12.7604 46.2938 12.3271L27.6333 4.63124C26.7941 4.27913 25.8934 4.09714 24.9833 4.09583ZM48.75 16.7833C48.5913 16.7849 48.4343 16.8167 48.2875 16.8771L27.4292 24.9542C27.1955 25.0493 26.9954 25.2118 26.8544 25.4211C26.7134 25.6304 26.6379 25.8768 26.6375 26.1292V44.6625C26.6395 44.8654 26.6908 45.0648 26.787 45.2434C26.8833 45.422 27.0216 45.5745 27.19 45.6877C27.3584 45.8009 27.5518 45.8715 27.7535 45.8932C27.9553 45.9149 28.1593 45.8872 28.3479 45.8125L49.2083 37.7083C49.4427 37.6222 49.6447 37.4656 49.7865 37.2601C49.9282 37.0545 50.0028 36.8101 50 36.5604V18.0271C49.9978 17.697 49.8651 17.3812 49.631 17.1486C49.3968 16.916 49.0801 16.7854 48.75 16.7854V16.7833ZM1.40833 16.8646C1.2233 16.8575 1.03882 16.889 0.866652 16.9572C0.694482 17.0253 0.538394 17.1286 0.408333 17.2604C0.179167 17.4917 0 17.7708 0 18.1042V35.5104C0 36.4312 1.07292 37.0458 1.89167 36.6354L14.9542 30.3729L15.5938 30.0667L21.7792 27.075C22.75 26.6167 22.675 25.1833 21.6521 24.8L1.83958 16.9542C1.7024 16.8983 1.55638 16.8673 1.40833 16.8625V16.8646Z" fill="white"/>
</g>
<defs>
<clipPath id="clip0_169_178">
<rect width="50" height="50" fill="white"/>
</clipPath>
</defs>
</svg>
