<svg width="50" height="50" viewBox="0 0 50 50" fill="none" xmlns="http://www.w3.org/2000/svg">
<path d="M25 5C13.3175 5 1.75 21.2025 1.75 36.055C1.75 39.4975 13.085 45 25 45C36.915 45 48.25 39.4975 48.25 36.055C48.25 21.2025 36.6825 5 25 5ZM25.015 39.0375C12.02 39.0375 8.3325 33.8675 8.3325 32.2325C8.3325 29.015 13.6575 21.02 15.5975 21.02C17.395 21.02 19.4525 25.5475 21.3825 25.5475C24.485 25.5475 27.8 15.6625 30.33 15.6625C32.86 15.6625 41.8325 28.6075 41.8325 32.535C41.8325 33.2125 39.1225 39.0375 25.015 39.0375Z" fill="white"/>
</svg>
