<svg width="50" height="50" viewBox="0 0 50 50" fill="none" xmlns="http://www.w3.org/2000/svg">
<path d="M45.4492 9.85938C44.7266 8.92578 43.3281 7.8125 40.8203 7.8125C37.5293 7.8125 33.3086 10.0156 29.5293 13.7031C28.4487 14.7504 27.4564 15.8851 26.5625 17.0957V10.9375C26.5625 10.5231 26.3979 10.1257 26.1049 9.83265C25.8118 9.53962 25.4144 9.375 25 9.375C24.5856 9.375 24.1882 9.53962 23.8951 9.83265C23.6021 10.1257 23.4375 10.5231 23.4375 10.9375V17.0957C22.5461 15.8854 21.5564 14.7507 20.4785 13.7031C16.6973 10.0156 12.4766 7.8125 9.17969 7.8125C6.67188 7.8125 5.27344 8.92578 4.55078 9.85938C3.21875 11.5723 2.17188 14.5625 4.50977 23.7656C5.69141 28.4199 8.32031 30.2109 10.4922 30.8789C9.30778 32.8021 8.92814 35.1143 9.4354 37.3153C9.94266 39.5163 11.296 41.4291 13.2027 42.6399C15.1095 43.8507 17.4162 44.2622 19.624 43.7854C21.8317 43.3085 23.763 41.9816 25 40.0918C26.237 41.9816 28.1683 43.3085 30.376 43.7854C32.5838 44.2622 34.8905 43.8507 36.7973 42.6399C38.704 41.4291 40.0573 39.5163 40.5646 37.3153C41.0719 35.1143 40.6922 32.8021 39.5078 30.8789C41.6797 30.2148 44.3066 28.4199 45.4902 23.7656C46.8027 18.6016 47.8223 12.9102 45.4492 9.85938ZM17.9688 40.625C16.5822 40.6007 15.2562 40.0528 14.2569 39.0912C13.2576 38.1297 12.6591 36.8257 12.5815 35.4411C12.5038 34.0565 12.9529 32.6938 13.8384 31.6266C14.7239 30.5594 15.9803 29.8667 17.3555 29.6875C17.5623 29.6686 17.7633 29.6086 17.9466 29.5111C18.13 29.4136 18.2921 29.2805 18.4235 29.1196C18.5548 28.9588 18.6528 28.7733 18.7116 28.5741C18.7704 28.3749 18.789 28.166 18.7661 27.9596C18.7433 27.7532 18.6795 27.5534 18.5785 27.3719C18.4775 27.1904 18.3414 27.0308 18.1781 26.9026C18.0147 26.7743 17.8274 26.6799 17.6272 26.6249C17.4269 26.5698 17.2177 26.5553 17.0117 26.582C15.5511 26.7387 14.1557 27.2702 12.9609 28.125C11.3145 28.1426 8.66406 27.4277 7.53906 22.9961C6.97656 20.7793 5.27344 14.0352 7.01953 11.7773C7.29883 11.418 7.83008 10.9375 9.17969 10.9375C14.5059 10.9375 23.4375 19.7031 23.4375 24.9355V35.1562C23.4375 36.6067 22.8613 37.9977 21.8357 39.0232C20.8102 40.0488 19.4192 40.625 17.9688 40.625ZM42.4609 22.9961C41.334 27.4277 38.6855 28.1406 37.0371 28.125C35.8435 27.2664 34.448 26.7315 32.9863 26.5723C32.7804 26.5455 32.5711 26.5601 32.3709 26.6151C32.1706 26.6701 31.9833 26.7645 31.82 26.8928C31.6566 27.0211 31.5205 27.1806 31.4195 27.3621C31.3186 27.5436 31.2548 27.7434 31.2319 27.9498C31.2091 28.1563 31.2276 28.3652 31.2865 28.5643C31.3453 28.7635 31.4432 28.949 31.5746 29.1099C31.7059 29.2708 31.868 29.4038 32.0514 29.5013C32.2348 29.5988 32.4358 29.6588 32.6426 29.6777C33.6963 29.7916 34.6945 30.208 35.5168 30.8768C36.3391 31.5455 36.9502 32.4379 37.2764 33.4463C37.6026 34.4547 37.63 35.536 37.3552 36.5596C37.0804 37.5832 36.5152 38.5054 35.7279 39.2149C34.9405 39.9244 33.9646 40.3908 32.918 40.5578C31.8714 40.7248 30.7988 40.5854 29.8297 40.1562C28.8606 39.7271 28.0364 39.0266 27.4567 38.1394C26.8769 37.2522 26.5664 36.2161 26.5625 35.1562V24.9355C26.5625 19.7031 35.4863 10.9375 40.8203 10.9375C42.1777 10.9375 42.707 11.418 42.9883 11.7773C44.7363 14.0352 43.0234 20.7793 42.4609 22.9961Z" fill="currentColor"/>
</svg>
