<svg width="125" height="125" viewBox="0 0 125 125" fill="none" xmlns="http://www.w3.org/2000/svg">
<path fill-rule="evenodd" clip-rule="evenodd" d="M97.1719 23.0234C101.734 30.0546 102.211 37.6718 99.8751 43.4453C95.6943 39.4504 90.585 36.5588 85.0079 35.0312C85.0651 33.9521 84.8228 32.8783 84.3078 31.9283C83.7928 30.9784 83.0252 30.1893 82.0897 29.6484C81.1543 29.1075 80.0875 28.8358 79.0072 28.8634C77.927 28.891 76.8755 29.2167 75.9688 29.8046L62.8594 38.3124L43.2032 51.0937C41.8999 51.9401 40.9862 53.2696 40.6632 54.7897C40.3401 56.3097 40.6341 57.8959 41.4805 59.1992C42.3269 60.5025 43.6564 61.4161 45.1765 61.7392C46.6966 62.0623 48.2827 61.7682 49.586 60.9218L69.2422 48.1484C76.7032 43.3046 88.7423 45.914 95.6876 56.6015C102.633 67.289 100.102 79.3437 92.6407 84.1874L53.3282 109.719C45.8751 114.562 33.8282 111.961 26.8829 101.281C22.3204 94.2499 21.8516 86.6249 24.1798 80.8515C28.4844 84.914 33.6407 87.8281 39.0548 89.2656C38.9975 90.3446 39.2398 91.4185 39.7548 92.3685C40.2698 93.3184 41.0375 94.1074 41.9729 94.6483C42.9084 95.1892 43.9752 95.4609 45.0554 95.4334C46.1356 95.4058 47.1872 95.08 48.0938 94.4921L80.8594 73.2031C82.1627 72.3567 83.0764 71.0272 83.3995 69.5071C83.7225 67.987 83.4285 66.4009 82.5821 65.0976C81.7357 63.7943 80.4062 62.8806 78.8861 62.5576C77.3661 62.2345 75.7799 62.5285 74.4766 63.3749L54.8126 76.1406C47.3594 80.9843 35.3126 78.3828 28.3751 67.7031C21.4298 57.0078 23.9532 44.9453 31.4219 40.1015L70.7266 14.5781C78.1876 9.73432 90.2266 12.3359 97.1719 23.0234ZM107.555 53.7578C115.016 43.4531 114.617 28.3515 107 16.6328C97.4923 1.99995 78.6016 -4.50787 64.3438 4.74995L25.0313 30.2734C11.9063 38.8046 9.39069 56.3671 16.5079 70.5234C9.04694 80.8281 9.44538 95.9296 17.0548 107.648C26.5704 122.289 45.461 128.797 59.711 119.539L99.0235 94.0078C112.149 85.4843 114.664 67.914 107.555 53.7578Z" fill="#373745"/>
</svg>
