<svg width="108" height="108" viewBox="0 0 108 108" fill="none" xmlns="http://www.w3.org/2000/svg">
<g clip-path="url(#clip0_209_420)">
<mask id="mask0_209_420" style="mask-type:luminance" maskUnits="userSpaceOnUse" x="0" y="0" width="108" height="108">
<path d="M0 0H108V108H0V0Z" fill="white"/>
</mask>
<g mask="url(#mask0_209_420)">
<path d="M105.431 1.57909e-05H2.565C2.22778 1.5272e-05 1.89387 0.0665098 1.58238 0.195694C1.27089 0.324879 0.987923 0.514218 0.749682 0.752877C0.511441 0.991536 0.322598 1.27483 0.19396 1.58655C0.0653215 1.89827 -0.000587659 2.2323 3.95467e-06 2.56952V105.435C-0.000588844 105.773 0.0654686 106.107 0.194388 106.419C0.323308 106.731 0.512553 107.015 0.751271 107.253C0.989989 107.492 1.27348 107.681 1.5855 107.81C1.89751 107.939 2.23191 108.005 2.5695 108.005H105.435C105.773 108.005 106.107 107.939 106.419 107.81C106.731 107.681 107.015 107.492 107.253 107.253C107.492 107.015 107.681 106.731 107.81 106.419C107.939 106.107 108.005 105.773 108.004 105.435V2.56502C108.004 2.22742 107.938 1.89314 107.808 1.58135C107.679 1.26956 107.489 0.986398 107.25 0.748097C107.011 0.509797 106.727 0.321048 106.415 0.192676C106.103 0.0643027 105.768 -0.00116877 105.431 1.57909e-05ZM64.287 57.717H51.4305V97.713H41.1435V57.717H28.287V48.8565H64.287V57.717ZM67.167 95.427V84.7395C67.167 84.7395 73.008 89.1405 80.0145 89.1405C87.021 89.1405 86.751 84.5595 86.751 83.9295C86.751 77.283 66.897 77.283 66.897 62.55C66.897 42.516 95.8275 50.4225 95.8275 50.4225L95.4675 59.9445C95.4675 59.9445 90.6165 56.709 85.1355 56.709C79.6545 56.709 77.679 59.319 77.679 62.1C77.679 69.2865 97.713 68.571 97.713 83.034C97.713 105.309 67.167 95.4315 67.167 95.4315" fill="#373745"/>
</g>
</g>
<defs>
<clipPath id="clip0_209_420">
<rect width="108" height="108" fill="white"/>
</clipPath>
</defs>
</svg>
